<?xml version="1.0" encoding="UTF-8" standalone="no"?><!DOCTYPE svg PUBLIC "-//W3C//DTD SVG 1.1//EN" "http://www.w3.org/Graphics/SVG/1.1/DTD/svg11.dtd"><!-- Generated by graphviz version 2.40.1 (20161225.0304)
 --><!-- Title: G Pages: 1 --><svg xmlns="http://www.w3.org/2000/svg" xmlns:xlink="http://www.w3.org/1999/xlink" width="1809pt" height="764pt" viewBox="0.00 0.00 1809.34 764.00">
<g id="graph0" class="graph" transform="scale(1 1) rotate(0) translate(4 760)">
<title>G</title>
<polygon fill="#ffffff" stroke="transparent" points="-4,4 -4,-760 1805.342,-760 1805.342,4 -4,4"/>
<!-- dubbo&#45;cluster -->
<g id="node1" class="node">
<title>dubbo-cluster</title>
<ellipse fill="none" stroke="#000000" cx="1387.6756" cy="-450" rx="64.2669" ry="18"/>
<text text-anchor="middle" x="1387.6756" y="-445.8" font-family="Times,serif" font-size="14.00" fill="#000000">dubbo-cluster</text>
</g>
<!-- dubbo&#45;metrics&#45;registry -->
<g id="node2" class="node">
<title>dubbo-metrics-registry</title>
<ellipse fill="none" stroke="#000000" cx="1271.6756" cy="-378" rx="99.5558" ry="18"/>
<text text-anchor="middle" x="1271.6756" y="-373.8" font-family="Times,serif" font-size="14.00" fill="#000000">dubbo-metrics-registry</text>
</g>
<!-- dubbo&#45;cluster&#45;&gt;dubbo&#45;metrics&#45;registry -->
<g id="edge1" class="edge">
<title>dubbo-cluster-&gt;dubbo-metrics-registry</title>
<path fill="none" stroke="#000000" d="M1361.0629,-433.4817C1345.4558,-423.7946 1325.5097,-411.4142 1308.4206,-400.8072"/>
<polygon fill="#000000" stroke="#000000" points="1310.1248,-397.7456 1299.7826,-395.4457 1306.4332,-403.6931 1310.1248,-397.7456"/>
</g>
<!-- dubbo&#45;metrics&#45;api -->
<g id="node23" class="node">
<title>dubbo-metrics-api</title>
<ellipse fill="none" stroke="#000000" cx="1143.6756" cy="-306" rx="81.6616" ry="18"/>
<text text-anchor="middle" x="1143.6756" y="-301.8" font-family="Times,serif" font-size="14.00" fill="#000000">dubbo-metrics-api</text>
</g>
<!-- dubbo&#45;metrics&#45;registry&#45;&gt;dubbo&#45;metrics&#45;api -->
<g id="edge22" class="edge">
<title>dubbo-metrics-registry-&gt;dubbo-metrics-api</title>
<path fill="none" stroke="#000000" d="M1241.0164,-360.7542C1223.474,-350.8866 1201.2948,-338.4108 1182.5397,-327.861"/>
<polygon fill="#000000" stroke="#000000" points="1184.0747,-324.7088 1173.643,-322.8566 1180.6428,-330.8098 1184.0747,-324.7088"/>
</g>
<!-- dubbo&#45;config&#45;api -->
<g id="node3" class="node">
<title>dubbo-config-api</title>
<ellipse fill="none" stroke="#000000" cx="913.6756" cy="-666" rx="78.1559" ry="18"/>
<text text-anchor="middle" x="913.6756" y="-661.8" font-family="Times,serif" font-size="14.00" fill="#000000">dubbo-config-api</text>
</g>
<!-- dubbo&#45;rpc&#45;injvm -->
<g id="node4" class="node">
<title>dubbo-rpc-injvm</title>
<ellipse fill="none" stroke="#000000" cx="519.6756" cy="-522" rx="76.4497" ry="18"/>
<text text-anchor="middle" x="519.6756" y="-517.8" font-family="Times,serif" font-size="14.00" fill="#000000">dubbo-rpc-injvm</text>
</g>
<!-- dubbo&#45;config&#45;api&#45;&gt;dubbo&#45;rpc&#45;injvm -->
<g id="edge2" class="edge">
<title>dubbo-config-api-&gt;dubbo-rpc-injvm</title>
<path fill="none" stroke="#000000" d="M840.4972,-659.7221C759.1103,-651.6977 633.6814,-635.9154 592.6756,-612 578.9775,-604.011 554.4687,-571.7339 537.6575,-548.1105"/>
<polygon fill="#000000" stroke="#000000" points="540.4662,-546.0201 531.8464,-539.8597 534.7431,-550.0509 540.4662,-546.0201"/>
</g>
<!-- dubbo&#45;monitor&#45;api -->
<g id="node5" class="node">
<title>dubbo-monitor-api</title>
<ellipse fill="none" stroke="#000000" cx="1497.6756" cy="-594" rx="83.974" ry="18"/>
<text text-anchor="middle" x="1497.6756" y="-589.8" font-family="Times,serif" font-size="14.00" fill="#000000">dubbo-monitor-api</text>
</g>
<!-- dubbo&#45;config&#45;api&#45;&gt;dubbo&#45;monitor&#45;api -->
<g id="edge3" class="edge">
<title>dubbo-config-api-&gt;dubbo-monitor-api</title>
<path fill="none" stroke="#000000" d="M987.1221,-659.8081C1083.3321,-651.266 1257.142,-634.3521 1404.6756,-612 1411.83,-610.9161 1419.2724,-609.673 1426.6924,-608.3575"/>
<polygon fill="#000000" stroke="#000000" points="1427.5544,-611.7583 1436.7676,-606.527 1426.303,-604.8711 1427.5544,-611.7583"/>
</g>
<!-- dubbo&#45;metrics&#45;config&#45;center -->
<g id="node6" class="node">
<title>dubbo-metrics-config-center</title>
<ellipse fill="none" stroke="#000000" cx="917.6756" cy="-450" rx="121.5085" ry="18"/>
<text text-anchor="middle" x="917.6756" y="-445.8" font-family="Times,serif" font-size="14.00" fill="#000000">dubbo-metrics-config-center</text>
</g>
<!-- dubbo&#45;config&#45;api&#45;&gt;dubbo&#45;metrics&#45;config&#45;center -->
<g id="edge4" class="edge">
<title>dubbo-config-api-&gt;dubbo-metrics-config-center</title>
<path fill="none" stroke="#000000" d="M914.0098,-647.9555C914.7054,-610.3938 916.3135,-523.5541 917.1495,-478.4103"/>
<polygon fill="#000000" stroke="#000000" points="920.6538,-478.2082 917.3396,-468.1451 913.655,-478.0785 920.6538,-478.2082"/>
</g>
<!-- dubbo&#45;registry&#45;api -->
<g id="node7" class="node">
<title>dubbo-registry-api</title>
<ellipse fill="none" stroke="#000000" cx="462.6756" cy="-594" rx="82.8071" ry="18"/>
<text text-anchor="middle" x="462.6756" y="-589.8" font-family="Times,serif" font-size="14.00" fill="#000000">dubbo-registry-api</text>
</g>
<!-- dubbo&#45;config&#45;api&#45;&gt;dubbo&#45;registry&#45;api -->
<g id="edge5" class="edge">
<title>dubbo-config-api-&gt;dubbo-registry-api</title>
<path fill="none" stroke="#000000" d="M847.0238,-656.4842C775.7884,-646.1618 659.5945,-628.8873 559.6756,-612 551.7513,-610.6607 543.4732,-609.2077 535.2372,-607.7276"/>
<polygon fill="#000000" stroke="#000000" points="535.7026,-604.255 525.2386,-605.9146 534.4536,-611.1427 535.7026,-604.255"/>
</g>
<!-- dubbo&#45;rpc&#45;api -->
<g id="node16" class="node">
<title>dubbo-rpc-api</title>
<ellipse fill="none" stroke="#000000" cx="1153.6756" cy="-234" rx="65.9755" ry="18"/>
<text text-anchor="middle" x="1153.6756" y="-229.8" font-family="Times,serif" font-size="14.00" fill="#000000">dubbo-rpc-api</text>
</g>
<!-- dubbo&#45;rpc&#45;injvm&#45;&gt;dubbo&#45;rpc&#45;api -->
<g id="edge51" class="edge">
<title>dubbo-rpc-injvm-&gt;dubbo-rpc-api</title>
<path fill="none" stroke="#000000" d="M519.4704,-503.7686C520.0792,-470.9613 525.9653,-401.5357 562.6756,-360 611.9132,-304.2904 642.049,-307.9381 713.6756,-288 871.1405,-244.1678 918.5341,-279.3836 1079.6756,-252 1085.0525,-251.0863 1090.618,-249.9997 1096.1716,-248.8196"/>
<polygon fill="#000000" stroke="#000000" points="1097.1088,-252.1968 1106.112,-246.6117 1095.591,-245.3633 1097.1088,-252.1968"/>
</g>
<!-- dubbo&#45;monitor&#45;api&#45;&gt;dubbo&#45;cluster -->
<g id="edge27" class="edge">
<title>dubbo-monitor-api-&gt;dubbo-cluster</title>
<path fill="none" stroke="#000000" d="M1436.129,-581.7196C1394.629,-572.0459 1345.2358,-557.3264 1332.6756,-540 1317.0463,-518.4399 1336.9213,-492.3327 1357.0072,-473.8016"/>
<polygon fill="#000000" stroke="#000000" points="1359.4385,-476.3245 1364.6421,-467.0955 1354.819,-471.0652 1359.4385,-476.3245"/>
</g>
<!-- dubbo&#45;metrics&#45;config&#45;center&#45;&gt;dubbo&#45;metrics&#45;api -->
<g id="edge26" class="edge">
<title>dubbo-metrics-config-center-&gt;dubbo-metrics-api</title>
<path fill="none" stroke="#000000" d="M997.9919,-436.4377C1028.0518,-428.4088 1061.0813,-415.7717 1086.6756,-396 1107.6812,-379.7731 1123.049,-353.4547 1132.4986,-333.4594"/>
<polygon fill="#000000" stroke="#000000" points="1135.7431,-334.7784 1136.6608,-324.2234 1129.3612,-331.9024 1135.7431,-334.7784"/>
</g>
<!-- dubbo&#45;container&#45;api -->
<g id="node12" class="node">
<title>dubbo-container-api</title>
<ellipse fill="none" stroke="#000000" cx="114.6756" cy="-522" rx="89.1703" ry="18"/>
<text text-anchor="middle" x="114.6756" y="-517.8" font-family="Times,serif" font-size="14.00" fill="#000000">dubbo-container-api</text>
</g>
<!-- dubbo&#45;registry&#45;api&#45;&gt;dubbo&#45;container&#45;api -->
<g id="edge40" class="edge">
<title>dubbo-registry-api-&gt;dubbo-container-api</title>
<path fill="none" stroke="#000000" d="M402.4559,-581.5408C342.6272,-569.1624 250.839,-550.1717 187.073,-536.9788"/>
<polygon fill="#000000" stroke="#000000" points="187.5905,-533.5118 177.0888,-534.9131 186.1722,-540.3666 187.5905,-533.5118"/>
</g>
<!-- dubbo&#45;metadata&#45;api -->
<g id="node18" class="node">
<title>dubbo-metadata-api</title>
<ellipse fill="none" stroke="#000000" cx="1091.6756" cy="-522" rx="88.0249" ry="18"/>
<text text-anchor="middle" x="1091.6756" y="-517.8" font-family="Times,serif" font-size="14.00" fill="#000000">dubbo-metadata-api</text>
</g>
<!-- dubbo&#45;registry&#45;api&#45;&gt;dubbo&#45;metadata&#45;api -->
<g id="edge39" class="edge">
<title>dubbo-registry-api-&gt;dubbo-metadata-api</title>
<path fill="none" stroke="#000000" d="M531.779,-584.0422C551.4409,-581.3148 572.8888,-578.4399 592.6756,-576 735.6508,-558.3696 902.0674,-540.9898 1002.022,-530.8897"/>
<polygon fill="#000000" stroke="#000000" points="1002.4832,-534.361 1012.0815,-529.8751 1001.7807,-527.3963 1002.4832,-534.361"/>
</g>
<!-- dubbo&#45;config&#45;spring -->
<g id="node8" class="node">
<title>dubbo-config-spring</title>
<ellipse fill="none" stroke="#000000" cx="913.6756" cy="-738" rx="90.3371" ry="18"/>
<text text-anchor="middle" x="913.6756" y="-733.8" font-family="Times,serif" font-size="14.00" fill="#000000">dubbo-config-spring</text>
</g>
<!-- dubbo&#45;config&#45;spring&#45;&gt;dubbo&#45;config&#45;api -->
<g id="edge6" class="edge">
<title>dubbo-config-spring-&gt;dubbo-config-api</title>
<path fill="none" stroke="#000000" d="M913.6756,-719.8314C913.6756,-712.131 913.6756,-702.9743 913.6756,-694.4166"/>
<polygon fill="#000000" stroke="#000000" points="917.1757,-694.4132 913.6756,-684.4133 910.1757,-694.4133 917.1757,-694.4132"/>
</g>
<!-- dubbo&#45;configcenter&#45;zookeeper -->
<g id="node9" class="node">
<title>dubbo-configcenter-zookeeper</title>
<ellipse fill="none" stroke="#000000" cx="743.6756" cy="-522" rx="129.5834" ry="18"/>
<text text-anchor="middle" x="743.6756" y="-517.8" font-family="Times,serif" font-size="14.00" fill="#000000">dubbo-configcenter-zookeeper</text>
</g>
<!-- dubbo&#45;configcenter&#45;zookeeper&#45;&gt;dubbo&#45;metrics&#45;config&#45;center -->
<g id="edge9" class="edge">
<title>dubbo-configcenter-zookeeper-&gt;dubbo-metrics-config-center</title>
<path fill="none" stroke="#000000" d="M785.353,-504.7542C809.9773,-494.5648 841.3225,-481.5944 867.3236,-470.8353"/>
<polygon fill="#000000" stroke="#000000" points="868.737,-474.0384 876.6389,-466.9807 866.0605,-467.5702 868.737,-474.0384"/>
</g>
<!-- dubbo&#45;metrics&#45;prometheus -->
<g id="node10" class="node">
<title>dubbo-metrics-prometheus</title>
<ellipse fill="none" stroke="#000000" cx="662.6756" cy="-450" rx="115.1706" ry="18"/>
<text text-anchor="middle" x="662.6756" y="-445.8" font-family="Times,serif" font-size="14.00" fill="#000000">dubbo-metrics-prometheus</text>
</g>
<!-- dubbo&#45;configcenter&#45;zookeeper&#45;&gt;dubbo&#45;metrics&#45;prometheus -->
<g id="edge7" class="edge">
<title>dubbo-configcenter-zookeeper-&gt;dubbo-metrics-prometheus</title>
<path fill="none" stroke="#000000" d="M723.6531,-504.2022C713.6254,-495.2887 701.3247,-484.3548 690.4042,-474.6476"/>
<polygon fill="#000000" stroke="#000000" points="692.5479,-471.8703 682.7485,-467.8425 687.8973,-477.1022 692.5479,-471.8703"/>
</g>
<!-- dubbo&#45;remoting&#45;zookeeper -->
<g id="node11" class="node">
<title>dubbo-remoting-zookeeper</title>
<ellipse fill="none" stroke="#000000" cx="375.6756" cy="-450" rx="116.301" ry="18"/>
<text text-anchor="middle" x="375.6756" y="-445.8" font-family="Times,serif" font-size="14.00" fill="#000000">dubbo-remoting-zookeeper</text>
</g>
<!-- dubbo&#45;configcenter&#45;zookeeper&#45;&gt;dubbo&#45;remoting&#45;zookeeper -->
<g id="edge8" class="edge">
<title>dubbo-configcenter-zookeeper-&gt;dubbo-remoting-zookeeper</title>
<path fill="none" stroke="#000000" d="M668.3173,-507.256C607.0397,-495.2669 520.7162,-478.3775 457.7077,-466.0497"/>
<polygon fill="#000000" stroke="#000000" points="458.2888,-462.5972 447.8028,-464.1118 456.9446,-469.4669 458.2888,-462.5972"/>
</g>
<!-- dubbo&#45;metrics&#45;default -->
<g id="node19" class="node">
<title>dubbo-metrics-default</title>
<ellipse fill="none" stroke="#000000" cx="980.6756" cy="-378" rx="96.6888" ry="18"/>
<text text-anchor="middle" x="980.6756" y="-373.8" font-family="Times,serif" font-size="14.00" fill="#000000">dubbo-metrics-default</text>
</g>
<!-- dubbo&#45;metrics&#45;prometheus&#45;&gt;dubbo&#45;metrics&#45;default -->
<g id="edge23" class="edge">
<title>dubbo-metrics-prometheus-&gt;dubbo-metrics-default</title>
<path fill="none" stroke="#000000" d="M728.1799,-435.1689C780.8983,-423.2326 854.8848,-406.481 909.143,-394.1961"/>
<polygon fill="#000000" stroke="#000000" points="910.0549,-397.5783 919.0351,-391.9563 908.509,-390.7511 910.0549,-397.5783"/>
</g>
<!-- dubbo&#45;qos&#45;api -->
<g id="node24" class="node">
<title>dubbo-qos-api</title>
<ellipse fill="none" stroke="#000000" cx="424.6756" cy="-378" rx="66.6402" ry="18"/>
<text text-anchor="middle" x="424.6756" y="-373.8" font-family="Times,serif" font-size="14.00" fill="#000000">dubbo-qos-api</text>
</g>
<!-- dubbo&#45;metrics&#45;prometheus&#45;&gt;dubbo&#45;qos&#45;api -->
<g id="edge24" class="edge">
<title>dubbo-metrics-prometheus-&gt;dubbo-qos-api</title>
<path fill="none" stroke="#000000" d="M609.56,-433.9314C570.6606,-422.1635 518.0458,-406.2464 478.8911,-394.4013"/>
<polygon fill="#000000" stroke="#000000" points="479.8281,-391.0282 469.2431,-391.4826 477.8012,-397.7283 479.8281,-391.0282"/>
</g>
<!-- dubbo&#45;remoting&#45;api -->
<g id="node37" class="node">
<title>dubbo-remoting-api</title>
<ellipse fill="none" stroke="#000000" cx="749.6756" cy="-162" rx="88.048" ry="18"/>
<text text-anchor="middle" x="749.6756" y="-157.8" font-family="Times,serif" font-size="14.00" fill="#000000">dubbo-remoting-api</text>
</g>
<!-- dubbo&#45;remoting&#45;zookeeper&#45;&gt;dubbo&#45;remoting&#45;api -->
<g id="edge47" class="edge">
<title>dubbo-remoting-zookeeper-&gt;dubbo-remoting-api</title>
<path fill="none" stroke="#000000" d="M363.2328,-431.8601C335.313,-388.7265 274.3006,-278.9505 329.6756,-216 350.7894,-191.9978 537.088,-175.6838 654.3665,-167.6906"/>
<polygon fill="#000000" stroke="#000000" points="654.6969,-171.1764 664.4393,-167.0129 654.2269,-164.1922 654.6969,-171.1764"/>
</g>
<!-- dubbo&#45;common -->
<g id="node13" class="node">
<title>dubbo-common</title>
<ellipse fill="none" stroke="#000000" cx="549.6756" cy="-18" rx="72.3807" ry="18"/>
<text text-anchor="middle" x="549.6756" y="-13.8" font-family="Times,serif" font-size="14.00" fill="#000000">dubbo-common</text>
</g>
<!-- dubbo&#45;container&#45;api&#45;&gt;dubbo&#45;common -->
<g id="edge10" class="edge">
<title>dubbo-container-api-&gt;dubbo-common</title>
<path fill="none" stroke="#000000" d="M122.9465,-503.7881C134.3946,-476.8727 153.6756,-424.6212 153.6756,-378 153.6756,-378 153.6756,-378 153.6756,-162 153.6756,-93.8293 363.5651,-48.5954 477.7334,-29.0332"/>
<polygon fill="#000000" stroke="#000000" points="478.5235,-32.4494 487.8006,-27.3322 477.3572,-25.5472 478.5235,-32.4494"/>
</g>
<!-- dubbo&#45;container&#45;spring -->
<g id="node14" class="node">
<title>dubbo-container-spring</title>
<ellipse fill="none" stroke="#000000" cx="101.6756" cy="-594" rx="101.8516" ry="18"/>
<text text-anchor="middle" x="101.6756" y="-589.8" font-family="Times,serif" font-size="14.00" fill="#000000">dubbo-container-spring</text>
</g>
<!-- dubbo&#45;container&#45;spring&#45;&gt;dubbo&#45;container&#45;api -->
<g id="edge11" class="edge">
<title>dubbo-container-spring-&gt;dubbo-container-api</title>
<path fill="none" stroke="#000000" d="M104.9561,-575.8314C106.3464,-568.131 107.9997,-558.9743 109.5448,-550.4166"/>
<polygon fill="#000000" stroke="#000000" points="113.0184,-550.8761 111.351,-540.4133 106.1298,-549.6322 113.0184,-550.8761"/>
</g>
<!-- dubbo&#45;filter&#45;cache -->
<g id="node15" class="node">
<title>dubbo-filter-cache</title>
<ellipse fill="none" stroke="#000000" cx="1363.6756" cy="-306" rx="82.2025" ry="18"/>
<text text-anchor="middle" x="1363.6756" y="-301.8" font-family="Times,serif" font-size="14.00" fill="#000000">dubbo-filter-cache</text>
</g>
<!-- dubbo&#45;filter&#45;cache&#45;&gt;dubbo&#45;rpc&#45;api -->
<g id="edge12" class="edge">
<title>dubbo-filter-cache-&gt;dubbo-rpc-api</title>
<path fill="none" stroke="#000000" d="M1319.3966,-290.8186C1285.8485,-279.3164 1239.7002,-263.4941 1204.6202,-251.4667"/>
<polygon fill="#000000" stroke="#000000" points="1205.6337,-248.1142 1195.039,-248.1817 1203.3633,-254.7359 1205.6337,-248.1142"/>
</g>
<!-- dubbo&#45;rpc&#45;api&#45;&gt;dubbo&#45;remoting&#45;api -->
<g id="edge49" class="edge">
<title>dubbo-rpc-api-&gt;dubbo-remoting-api</title>
<path fill="none" stroke="#000000" d="M1105.2319,-221.6551C1096.7395,-219.6517 1087.9682,-217.6845 1079.6756,-216 995.9344,-198.9896 899.3945,-183.6881 832.4583,-173.7539"/>
<polygon fill="#000000" stroke="#000000" points="832.7937,-170.2656 822.3896,-172.2669 831.771,-177.1904 832.7937,-170.2656"/>
</g>
<!-- dubbo&#45;filter&#45;validation -->
<g id="node17" class="node">
<title>dubbo-filter-validation</title>
<ellipse fill="none" stroke="#000000" cx="1562.6756" cy="-306" rx="98.9955" ry="18"/>
<text text-anchor="middle" x="1562.6756" y="-301.8" font-family="Times,serif" font-size="14.00" fill="#000000">dubbo-filter-validation</text>
</g>
<!-- dubbo&#45;filter&#45;validation&#45;&gt;dubbo&#45;rpc&#45;api -->
<g id="edge13" class="edge">
<title>dubbo-filter-validation-&gt;dubbo-rpc-api</title>
<path fill="none" stroke="#000000" d="M1491.4333,-293.4586C1414.7088,-279.952 1293.6589,-258.6425 1219.2195,-245.5383"/>
<polygon fill="#000000" stroke="#000000" points="1219.49,-242.0322 1209.0346,-243.7453 1218.2763,-248.9261 1219.49,-242.0322"/>
</g>
<!-- dubbo&#45;metadata&#45;api&#45;&gt;dubbo&#45;cluster -->
<g id="edge15" class="edge">
<title>dubbo-metadata-api-&gt;dubbo-cluster</title>
<path fill="none" stroke="#000000" d="M1148.9823,-508.1926C1194.0348,-497.3209 1258.3735,-481.7581 1314.6756,-468 1319.5436,-466.8104 1324.5932,-465.5729 1329.6606,-464.3284"/>
<polygon fill="#000000" stroke="#000000" points="1330.509,-467.7241 1339.3841,-461.9376 1328.8376,-460.9266 1330.509,-467.7241"/>
</g>
<!-- dubbo&#45;metadata&#45;api&#45;&gt;dubbo&#45;metrics&#45;default -->
<g id="edge14" class="edge">
<title>dubbo-metadata-api-&gt;dubbo-metrics-default</title>
<path fill="none" stroke="#000000" d="M1085.7374,-503.7379C1078.8867,-484.5275 1066.2631,-454.0773 1048.6756,-432 1039.5298,-420.5193 1027.5042,-409.9602 1016.1125,-401.2824"/>
<polygon fill="#000000" stroke="#000000" points="1018.1115,-398.408 1007.9798,-395.3098 1013.9681,-404.0501 1018.1115,-398.408"/>
</g>
<!-- dubbo&#45;metrics&#45;metadata -->
<g id="node20" class="node">
<title>dubbo-metrics-metadata</title>
<ellipse fill="none" stroke="#000000" cx="1200.6756" cy="-450" rx="104.7732" ry="18"/>
<text text-anchor="middle" x="1200.6756" y="-445.8" font-family="Times,serif" font-size="14.00" fill="#000000">dubbo-metrics-metadata</text>
</g>
<!-- dubbo&#45;metadata&#45;api&#45;&gt;dubbo&#45;metrics&#45;metadata -->
<g id="edge16" class="edge">
<title>dubbo-metadata-api-&gt;dubbo-metrics-metadata</title>
<path fill="none" stroke="#000000" d="M1117.7838,-504.7542C1132.1319,-495.2766 1150.1224,-483.393 1165.6734,-473.1207"/>
<polygon fill="#000000" stroke="#000000" points="1167.6083,-476.0373 1174.0232,-467.6053 1163.7501,-470.1965 1167.6083,-476.0373"/>
</g>
<!-- dubbo&#45;metrics&#45;default&#45;&gt;dubbo&#45;metrics&#45;api -->
<g id="edge21" class="edge">
<title>dubbo-metrics-default-&gt;dubbo-metrics-api</title>
<path fill="none" stroke="#000000" d="M1018.4808,-361.3008C1042.1644,-350.8393 1072.8372,-337.2906 1097.8945,-326.2223"/>
<polygon fill="#000000" stroke="#000000" points="1099.4636,-329.3556 1107.1967,-322.1134 1096.6352,-322.9524 1099.4636,-329.3556"/>
</g>
<!-- dubbo&#45;metrics&#45;metadata&#45;&gt;dubbo&#45;metrics&#45;api -->
<g id="edge25" class="edge">
<title>dubbo-metrics-metadata-&gt;dubbo-metrics-api</title>
<path fill="none" stroke="#000000" d="M1185.3112,-432.1301C1177.4429,-422.1099 1168.35,-409.0332 1162.6756,-396 1154.096,-376.2941 1149.2861,-352.4331 1146.6535,-334.2324"/>
<polygon fill="#000000" stroke="#000000" points="1150.1143,-333.704 1145.343,-324.2443 1143.1738,-334.6147 1150.1143,-333.704"/>
</g>
<!-- dubbo&#45;metadata&#45;report&#45;zookeeper -->
<g id="node21" class="node">
<title>dubbo-metadata-report-zookeeper</title>
<ellipse fill="none" stroke="#000000" cx="743.6756" cy="-594" rx="142.3212" ry="18"/>
<text text-anchor="middle" x="743.6756" y="-589.8" font-family="Times,serif" font-size="14.00" fill="#000000">dubbo-metadata-report-zookeeper</text>
</g>
<!-- dubbo&#45;metadata&#45;report&#45;zookeeper&#45;&gt;dubbo&#45;configcenter&#45;zookeeper -->
<g id="edge18" class="edge">
<title>dubbo-metadata-report-zookeeper-&gt;dubbo-configcenter-zookeeper</title>
<path fill="none" stroke="#000000" d="M743.6756,-575.8314C743.6756,-568.131 743.6756,-558.9743 743.6756,-550.4166"/>
<polygon fill="#000000" stroke="#000000" points="747.1757,-550.4132 743.6756,-540.4133 740.1757,-550.4133 747.1757,-550.4132"/>
</g>
<!-- dubbo&#45;metadata&#45;report&#45;zookeeper&#45;&gt;dubbo&#45;metadata&#45;api -->
<g id="edge17" class="edge">
<title>dubbo-metadata-report-zookeeper-&gt;dubbo-metadata-api</title>
<path fill="none" stroke="#000000" d="M818.3304,-578.5542C877.8944,-566.2306 960.8165,-549.0743 1019.6726,-536.8972"/>
<polygon fill="#000000" stroke="#000000" points="1020.5531,-540.2892 1029.6365,-534.8357 1019.1348,-533.4344 1020.5531,-540.2892"/>
</g>
<!-- dubbo&#45;metadata&#45;definition&#45;protobuf -->
<g id="node22" class="node">
<title>dubbo-metadata-definition-protobuf</title>
<ellipse fill="none" stroke="#000000" cx="1091.6756" cy="-594" rx="150.4675" ry="18"/>
<text text-anchor="middle" x="1091.6756" y="-589.8" font-family="Times,serif" font-size="14.00" fill="#000000">dubbo-metadata-definition-protobuf</text>
</g>
<!-- dubbo&#45;metadata&#45;definition&#45;protobuf&#45;&gt;dubbo&#45;metadata&#45;api -->
<g id="edge19" class="edge">
<title>dubbo-metadata-definition-protobuf-&gt;dubbo-metadata-api</title>
<path fill="none" stroke="#000000" d="M1091.6756,-575.8314C1091.6756,-568.131 1091.6756,-558.9743 1091.6756,-550.4166"/>
<polygon fill="#000000" stroke="#000000" points="1095.1757,-550.4132 1091.6756,-540.4133 1088.1757,-550.4133 1095.1757,-550.4132"/>
</g>
<!-- dubbo&#45;metrics&#45;api&#45;&gt;dubbo&#45;rpc&#45;api -->
<g id="edge20" class="edge">
<title>dubbo-metrics-api-&gt;dubbo-rpc-api</title>
<path fill="none" stroke="#000000" d="M1146.199,-287.8314C1147.2685,-280.131 1148.5403,-270.9743 1149.7289,-262.4166"/>
<polygon fill="#000000" stroke="#000000" points="1153.2092,-262.7997 1151.1182,-252.4133 1146.2757,-261.8367 1153.2092,-262.7997"/>
</g>
<!-- dubbo&#45;remoting&#45;netty4 -->
<g id="node27" class="node">
<title>dubbo-remoting-netty4</title>
<ellipse fill="none" stroke="#000000" cx="969.6756" cy="-234" rx="100.7288" ry="18"/>
<text text-anchor="middle" x="969.6756" y="-229.8" font-family="Times,serif" font-size="14.00" fill="#000000">dubbo-remoting-netty4</text>
</g>
<!-- dubbo&#45;qos&#45;api&#45;&gt;dubbo&#45;remoting&#45;netty4 -->
<g id="edge30" class="edge">
<title>dubbo-qos-api-&gt;dubbo-remoting-netty4</title>
<path fill="none" stroke="#000000" d="M434.933,-360.2019C448.2474,-338.9569 473.6192,-304.2643 505.6756,-288 576.3883,-252.1229 782.0757,-262.4648 860.6756,-252 869.3091,-250.8505 878.3093,-249.5425 887.2746,-248.1683"/>
<polygon fill="#000000" stroke="#000000" points="888.0201,-251.5944 897.3604,-246.5936 886.9402,-244.6782 888.0201,-251.5944"/>
</g>
<!-- dubbo&#45;monitor&#45;default -->
<g id="node25" class="node">
<title>dubbo-monitor-default</title>
<ellipse fill="none" stroke="#000000" cx="1388.6756" cy="-666" rx="99.0013" ry="18"/>
<text text-anchor="middle" x="1388.6756" y="-661.8" font-family="Times,serif" font-size="14.00" fill="#000000">dubbo-monitor-default</text>
</g>
<!-- dubbo&#45;monitor&#45;default&#45;&gt;dubbo&#45;monitor&#45;api -->
<g id="edge28" class="edge">
<title>dubbo-monitor-default-&gt;dubbo-monitor-api</title>
<path fill="none" stroke="#000000" d="M1415.0615,-648.5708C1429.5213,-639.0194 1447.617,-627.0662 1463.1838,-616.7836"/>
<polygon fill="#000000" stroke="#000000" points="1465.1178,-619.7008 1471.5328,-611.2687 1461.2597,-613.86 1465.1178,-619.7008"/>
</g>
<!-- dubbo&#45;auth -->
<g id="node26" class="node">
<title>dubbo-auth</title>
<ellipse fill="none" stroke="#000000" cx="988.6756" cy="-306" rx="55.042" ry="18"/>
<text text-anchor="middle" x="988.6756" y="-301.8" font-family="Times,serif" font-size="14.00" fill="#000000">dubbo-auth</text>
</g>
<!-- dubbo&#45;auth&#45;&gt;dubbo&#45;rpc&#45;api -->
<g id="edge29" class="edge">
<title>dubbo-auth-&gt;dubbo-rpc-api</title>
<path fill="none" stroke="#000000" d="M1022.0658,-291.4297C1047.168,-280.4761 1081.8071,-265.3608 1109.248,-253.3866"/>
<polygon fill="#000000" stroke="#000000" points="1110.861,-256.5015 1118.6266,-249.2941 1108.0614,-250.0857 1110.861,-256.5015"/>
</g>
<!-- dubbo&#45;remoting&#45;netty4&#45;&gt;dubbo&#45;remoting&#45;api -->
<g id="edge46" class="edge">
<title>dubbo-remoting-netty4-&gt;dubbo-remoting-api</title>
<path fill="none" stroke="#000000" d="M921.3957,-218.1993C887.5203,-207.1128 842.0985,-192.2475 806.4787,-180.5901"/>
<polygon fill="#000000" stroke="#000000" points="807.3024,-177.1771 796.7098,-177.393 805.1251,-183.8299 807.3024,-177.1771"/>
</g>
<!-- dubbo&#45;qos -->
<g id="node28" class="node">
<title>dubbo-qos</title>
<ellipse fill="none" stroke="#000000" cx="1583.6756" cy="-738" rx="51.6131" ry="18"/>
<text text-anchor="middle" x="1583.6756" y="-733.8" font-family="Times,serif" font-size="14.00" fill="#000000">dubbo-qos</text>
</g>
<!-- dubbo&#45;qos&#45;&gt;dubbo&#45;config&#45;api -->
<g id="edge31" class="edge">
<title>dubbo-qos-&gt;dubbo-config-api</title>
<path fill="none" stroke="#000000" d="M1534.1368,-732.6764C1419.5424,-720.3618 1135.2575,-689.8118 994.8254,-674.7206"/>
<polygon fill="#000000" stroke="#000000" points="994.8744,-671.2058 984.5577,-673.6172 994.1264,-678.1657 994.8744,-671.2058"/>
</g>
<!-- dubbo&#45;qos&#45;&gt;dubbo&#45;qos&#45;api -->
<g id="edge33" class="edge">
<title>dubbo-qos-&gt;dubbo-qos-api</title>
<path fill="none" stroke="#000000" d="M1531.9513,-736.3317C1287.9385,-728.4095 263.142,-694.5347 250.6756,-684 219.4502,-657.6129 231.6756,-634.8816 231.6756,-594 231.6756,-594 231.6756,-594 231.6756,-522 231.6756,-481.1184 223.1409,-462.2183 250.6756,-432 265.7455,-415.4614 317.3028,-400.71 360.4149,-390.8217"/>
<polygon fill="#000000" stroke="#000000" points="361.3232,-394.205 370.3145,-388.601 359.7909,-387.3748 361.3232,-394.205"/>
</g>
<!-- dubbo&#45;serialization&#45;fastjson2 -->
<g id="node29" class="node">
<title>dubbo-serialization-fastjson2</title>
<ellipse fill="none" stroke="#000000" cx="1677.6756" cy="-162" rx="123.8331" ry="18"/>
<text text-anchor="middle" x="1677.6756" y="-157.8" font-family="Times,serif" font-size="14.00" fill="#000000">dubbo-serialization-fastjson2</text>
</g>
<!-- dubbo&#45;qos&#45;&gt;dubbo&#45;serialization&#45;fastjson2 -->
<g id="edge32" class="edge">
<title>dubbo-qos-&gt;dubbo-serialization-fastjson2</title>
<path fill="none" stroke="#000000" d="M1627.4136,-728.3518C1653.0929,-720.5168 1684.2241,-706.8944 1703.6756,-684 1730.4799,-652.4514 1727.6756,-635.3978 1727.6756,-594 1727.6756,-594 1727.6756,-594 1727.6756,-306 1727.6756,-263.2025 1707.7225,-217.0115 1693.0256,-188.7934"/>
<polygon fill="#000000" stroke="#000000" points="1696.0901,-187.102 1688.2793,-179.9437 1689.9213,-190.4105 1696.0901,-187.102"/>
</g>
<!-- dubbo&#45;rpc&#45;dubbo -->
<g id="node30" class="node">
<title>dubbo-rpc-dubbo</title>
<ellipse fill="none" stroke="#000000" cx="1583.6756" cy="-666" rx="78.1617" ry="18"/>
<text text-anchor="middle" x="1583.6756" y="-661.8" font-family="Times,serif" font-size="14.00" fill="#000000">dubbo-rpc-dubbo</text>
</g>
<!-- dubbo&#45;qos&#45;&gt;dubbo&#45;rpc&#45;dubbo -->
<g id="edge34" class="edge">
<title>dubbo-qos-&gt;dubbo-rpc-dubbo</title>
<path fill="none" stroke="#000000" d="M1583.6756,-719.8314C1583.6756,-712.131 1583.6756,-702.9743 1583.6756,-694.4166"/>
<polygon fill="#000000" stroke="#000000" points="1587.1757,-694.4132 1583.6756,-684.4133 1580.1757,-694.4133 1587.1757,-694.4132"/>
</g>
<!-- dubbo&#45;serialization&#45;hessian2 -->
<g id="node31" class="node">
<title>dubbo-serialization-hessian2</title>
<ellipse fill="none" stroke="#000000" cx="1121.6756" cy="-162" rx="122.1094" ry="18"/>
<text text-anchor="middle" x="1121.6756" y="-157.8" font-family="Times,serif" font-size="14.00" fill="#000000">dubbo-serialization-hessian2</text>
</g>
<!-- dubbo&#45;qos&#45;&gt;dubbo&#45;serialization&#45;hessian2 -->
<g id="edge35" class="edge">
<title>dubbo-qos-&gt;dubbo-serialization-hessian2</title>
<path fill="none" stroke="#000000" d="M1618.2443,-724.5538C1636.5364,-715.7058 1657.813,-702.3379 1670.6756,-684 1694.1516,-650.5308 1689.6756,-634.8816 1689.6756,-594 1689.6756,-594 1689.6756,-594 1689.6756,-306 1689.6756,-257.8592 1379.1415,-202.1822 1217.2922,-176.4329"/>
<polygon fill="#000000" stroke="#000000" points="1217.7502,-172.9619 1207.326,-174.8553 1216.6557,-179.8758 1217.7502,-172.9619"/>
</g>
<!-- dubbo&#45;serialization&#45;api -->
<g id="node38" class="node">
<title>dubbo-serialization-api</title>
<ellipse fill="none" stroke="#000000" cx="1121.6756" cy="-90" rx="100.6998" ry="18"/>
<text text-anchor="middle" x="1121.6756" y="-85.8" font-family="Times,serif" font-size="14.00" fill="#000000">dubbo-serialization-api</text>
</g>
<!-- dubbo&#45;serialization&#45;fastjson2&#45;&gt;dubbo&#45;serialization&#45;api -->
<g id="edge57" class="edge">
<title>dubbo-serialization-fastjson2-&gt;dubbo-serialization-api</title>
<path fill="none" stroke="#000000" d="M1585.2394,-150.0298C1482.1398,-136.6788 1316.3742,-115.2128 1213.5166,-101.8931"/>
<polygon fill="#000000" stroke="#000000" points="1213.8218,-98.4035 1203.4551,-100.5901 1212.9228,-105.3455 1213.8218,-98.4035"/>
</g>
<!-- dubbo&#45;rpc&#45;dubbo&#45;&gt;dubbo&#45;cluster -->
<g id="edge50" class="edge">
<title>dubbo-rpc-dubbo-&gt;dubbo-cluster</title>
<path fill="none" stroke="#000000" d="M1588.8729,-647.9937C1593.3338,-629.5206 1597.9875,-600.1496 1590.6756,-576 1579.5308,-539.191 1573.0813,-527.5501 1542.6756,-504 1526.8031,-491.7063 1481.4442,-476.586 1443.8677,-465.4752"/>
<polygon fill="#000000" stroke="#000000" points="1444.5871,-462.0392 1434.007,-462.5975 1442.626,-468.7589 1444.5871,-462.0392"/>
</g>
<!-- dubbo&#45;serialization&#45;hessian2&#45;&gt;dubbo&#45;serialization&#45;api -->
<g id="edge56" class="edge">
<title>dubbo-serialization-hessian2-&gt;dubbo-serialization-api</title>
<path fill="none" stroke="#000000" d="M1121.6756,-143.8314C1121.6756,-136.131 1121.6756,-126.9743 1121.6756,-118.4166"/>
<polygon fill="#000000" stroke="#000000" points="1125.1757,-118.4132 1121.6756,-108.4133 1118.1757,-118.4133 1125.1757,-118.4132"/>
</g>
<!-- dubbo&#45;security -->
<g id="node32" class="node">
<title>dubbo-security</title>
<ellipse fill="none" stroke="#000000" cx="796.6756" cy="-378" rx="68.9235" ry="18"/>
<text text-anchor="middle" x="796.6756" y="-373.8" font-family="Times,serif" font-size="14.00" fill="#000000">dubbo-security</text>
</g>
<!-- dubbo&#45;rpc&#45;triple -->
<g id="node33" class="node">
<title>dubbo-rpc-triple</title>
<ellipse fill="none" stroke="#000000" cx="796.6756" cy="-306" rx="74.1393" ry="18"/>
<text text-anchor="middle" x="796.6756" y="-301.8" font-family="Times,serif" font-size="14.00" fill="#000000">dubbo-rpc-triple</text>
</g>
<!-- dubbo&#45;security&#45;&gt;dubbo&#45;rpc&#45;triple -->
<g id="edge36" class="edge">
<title>dubbo-security-&gt;dubbo-rpc-triple</title>
<path fill="none" stroke="#000000" d="M796.6756,-359.8314C796.6756,-352.131 796.6756,-342.9743 796.6756,-334.4166"/>
<polygon fill="#000000" stroke="#000000" points="800.1757,-334.4132 796.6756,-324.4133 793.1757,-334.4133 800.1757,-334.4132"/>
</g>
<!-- dubbo&#45;rpc&#45;triple&#45;&gt;dubbo&#45;rpc&#45;api -->
<g id="edge54" class="edge">
<title>dubbo-rpc-triple-&gt;dubbo-rpc-api</title>
<path fill="none" stroke="#000000" d="M857.0281,-295.3879C914.4453,-285.0785 1003.1754,-268.5918 1079.6756,-252 1084.715,-250.907 1089.9363,-249.7293 1095.1673,-248.5181"/>
<polygon fill="#000000" stroke="#000000" points="1096.2598,-251.8567 1105.1933,-246.1608 1094.6576,-245.0425 1096.2598,-251.8567"/>
</g>
<!-- dubbo&#45;reactive -->
<g id="node34" class="node">
<title>dubbo-reactive</title>
<ellipse fill="none" stroke="#000000" cx="640.6756" cy="-378" rx="68.9023" ry="18"/>
<text text-anchor="middle" x="640.6756" y="-373.8" font-family="Times,serif" font-size="14.00" fill="#000000">dubbo-reactive</text>
</g>
<!-- dubbo&#45;reactive&#45;&gt;dubbo&#45;rpc&#45;triple -->
<g id="edge37" class="edge">
<title>dubbo-reactive-&gt;dubbo-rpc-triple</title>
<path fill="none" stroke="#000000" d="M674.9105,-362.1993C697.815,-351.628 728.1638,-337.6209 752.8325,-326.2353"/>
<polygon fill="#000000" stroke="#000000" points="754.3686,-329.3812 761.9815,-322.0127 751.4352,-323.0254 754.3686,-329.3812"/>
</g>
<!-- dubbo&#45;spring&#45;security -->
<g id="node35" class="node">
<title>dubbo-spring-security</title>
<ellipse fill="none" stroke="#000000" cx="1437.6756" cy="-522" rx="96.1324" ry="18"/>
<text text-anchor="middle" x="1437.6756" y="-517.8" font-family="Times,serif" font-size="14.00" fill="#000000">dubbo-spring-security</text>
</g>
<!-- dubbo&#45;spring&#45;security&#45;&gt;dubbo&#45;cluster -->
<g id="edge38" class="edge">
<title>dubbo-spring-security-&gt;dubbo-cluster</title>
<path fill="none" stroke="#000000" d="M1425.0585,-503.8314C1419.2707,-495.497 1412.2983,-485.4567 1405.9508,-476.3162"/>
<polygon fill="#000000" stroke="#000000" points="1408.6943,-474.1307 1400.1155,-467.9134 1402.9447,-478.1235 1408.6943,-474.1307"/>
</g>
<!-- dubbo&#45;registry&#45;zookeeper -->
<g id="node36" class="node">
<title>dubbo-registry-zookeeper</title>
<ellipse fill="none" stroke="#000000" cx="370.6756" cy="-666" rx="110.5608" ry="18"/>
<text text-anchor="middle" x="370.6756" y="-661.8" font-family="Times,serif" font-size="14.00" fill="#000000">dubbo-registry-zookeeper</text>
</g>
<!-- dubbo&#45;registry&#45;zookeeper&#45;&gt;dubbo&#45;registry&#45;api -->
<g id="edge42" class="edge">
<title>dubbo-registry-zookeeper-&gt;dubbo-registry-api</title>
<path fill="none" stroke="#000000" d="M393.4172,-648.2022C405.1152,-639.0473 419.5365,-627.761 432.1857,-617.8617"/>
<polygon fill="#000000" stroke="#000000" points="434.4777,-620.5124 440.1956,-611.593 430.1635,-614.9999 434.4777,-620.5124"/>
</g>
<!-- dubbo&#45;registry&#45;zookeeper&#45;&gt;dubbo&#45;remoting&#45;zookeeper -->
<g id="edge41" class="edge">
<title>dubbo-registry-zookeeper-&gt;dubbo-remoting-zookeeper</title>
<path fill="none" stroke="#000000" d="M370.4634,-647.7264C370.3023,-629.5414 370.183,-600.8389 370.6756,-576 371.3404,-542.4841 372.9988,-503.983 374.2243,-478.4517"/>
<polygon fill="#000000" stroke="#000000" points="377.7253,-478.5154 374.7189,-468.3561 370.7337,-478.1728 377.7253,-478.5154"/>
</g>
<!-- dubbo&#45;remoting&#45;api&#45;&gt;dubbo&#45;serialization&#45;api -->
<g id="edge43" class="edge">
<title>dubbo-remoting-api-&gt;dubbo-serialization-api</title>
<path fill="none" stroke="#000000" d="M814.0484,-149.5408C877.7709,-137.2074 975.4093,-118.3096 1043.5413,-105.1228"/>
<polygon fill="#000000" stroke="#000000" points="1044.2192,-108.5566 1053.3719,-103.2201 1042.889,-101.6841 1044.2192,-108.5566"/>
</g>
<!-- dubbo&#45;serialization&#45;api&#45;&gt;dubbo&#45;common -->
<g id="edge55" class="edge">
<title>dubbo-serialization-api-&gt;dubbo-common</title>
<path fill="none" stroke="#000000" d="M1039.1128,-79.6075C927.9184,-65.611 731.6605,-40.9072 624.5539,-27.4252"/>
<polygon fill="#000000" stroke="#000000" points="624.8318,-23.9327 614.4729,-26.1563 623.9575,-30.8779 624.8318,-23.9327"/>
</g>
<!-- dubbo&#45;remoting&#45;http -->
<g id="node39" class="node">
<title>dubbo-remoting-http</title>
<ellipse fill="none" stroke="#000000" cx="1561.6756" cy="-450" rx="91.4983" ry="18"/>
<text text-anchor="middle" x="1561.6756" y="-445.8" font-family="Times,serif" font-size="14.00" fill="#000000">dubbo-remoting-http</text>
</g>
<!-- dubbo&#45;remoting&#45;http&#45;&gt;dubbo&#45;rpc&#45;api -->
<g id="edge44" class="edge">
<title>dubbo-remoting-http-&gt;dubbo-rpc-api</title>
<path fill="none" stroke="#000000" d="M1530.8989,-433.0405C1495.366,-413.8524 1434.8461,-382.368 1380.6756,-360 1333.9092,-340.6893 1316.071,-350.0162 1272.6756,-324 1252.7223,-312.0376 1252.8646,-302.505 1234.6756,-288 1220.4501,-276.6557 1203.8645,-265.3029 1189.4196,-255.955"/>
<polygon fill="#000000" stroke="#000000" points="1191.0539,-252.8459 1180.7425,-250.4117 1187.2853,-258.7449 1191.0539,-252.8459"/>
</g>
<!-- dubbo&#45;remoting&#45;netty -->
<g id="node40" class="node">
<title>dubbo-remoting-netty</title>
<ellipse fill="none" stroke="#000000" cx="434.6756" cy="-234" rx="95.5722" ry="18"/>
<text text-anchor="middle" x="434.6756" y="-229.8" font-family="Times,serif" font-size="14.00" fill="#000000">dubbo-remoting-netty</text>
</g>
<!-- dubbo&#45;remoting&#45;netty&#45;&gt;dubbo&#45;remoting&#45;api -->
<g id="edge45" class="edge">
<title>dubbo-remoting-netty-&gt;dubbo-remoting-api</title>
<path fill="none" stroke="#000000" d="M495.7843,-220.0323C548.8398,-207.9053 625.6067,-190.3586 680.8206,-177.7383"/>
<polygon fill="#000000" stroke="#000000" points="681.9002,-181.0819 690.8689,-175.4415 680.3404,-174.2579 681.9002,-181.0819"/>
</g>
<!-- dubbo&#45;remoting&#45;zookeeper&#45;curator5 -->
<g id="node41" class="node">
<title>dubbo-remoting-zookeeper-curator5</title>
<ellipse fill="none" stroke="#000000" cx="699.6756" cy="-234" rx="151.5747" ry="18"/>
<text text-anchor="middle" x="699.6756" y="-229.8" font-family="Times,serif" font-size="14.00" fill="#000000">dubbo-remoting-zookeeper-curator5</text>
</g>
<!-- dubbo&#45;remoting&#45;zookeeper&#45;curator5&#45;&gt;dubbo&#45;remoting&#45;api -->
<g id="edge48" class="edge">
<title>dubbo-remoting-zookeeper-curator5-&gt;dubbo-remoting-api</title>
<path fill="none" stroke="#000000" d="M712.2927,-215.8314C718.0805,-207.497 725.0529,-197.4567 731.4005,-188.3162"/>
<polygon fill="#000000" stroke="#000000" points="734.4066,-190.1235 737.2358,-179.9134 728.657,-186.1307 734.4066,-190.1235"/>
</g>
<!-- dubbo&#45;rpc&#45;rest -->
<g id="node42" class="node">
<title>dubbo-rpc-rest</title>
<ellipse fill="none" stroke="#000000" cx="1327.6756" cy="-594" rx="67.7586" ry="18"/>
<text text-anchor="middle" x="1327.6756" y="-589.8" font-family="Times,serif" font-size="14.00" fill="#000000">dubbo-rpc-rest</text>
</g>
<!-- dubbo&#45;rpc&#45;rest&#45;&gt;dubbo&#45;metadata&#45;api -->
<g id="edge53" class="edge">
<title>dubbo-rpc-rest-&gt;dubbo-metadata-api</title>
<path fill="none" stroke="#000000" d="M1283.0084,-580.3727C1245.5234,-568.9366 1191.6809,-552.5101 1150.6563,-539.9941"/>
<polygon fill="#000000" stroke="#000000" points="1151.638,-536.6344 1141.0518,-537.0639 1149.5953,-543.3297 1151.638,-536.6344"/>
</g>
<!-- dubbo&#45;rpc&#45;rest&#45;&gt;dubbo&#45;remoting&#45;http -->
<g id="edge52" class="edge">
<title>dubbo-rpc-rest-&gt;dubbo-remoting-http</title>
<path fill="none" stroke="#000000" d="M1378.2884,-581.9851C1440.9258,-567.0156 1539.7646,-543.0238 1542.6756,-540 1558.3538,-523.7142 1562.5027,-497.9201 1563.0789,-478.1129"/>
<polygon fill="#000000" stroke="#000000" points="1566.5788,-478.1073 1563.0896,-468.1036 1559.5788,-478.0998 1566.5788,-478.1073"/>
</g>
<!-- dubbo&#45;serialization&#45;jdk -->
<g id="node43" class="node">
<title>dubbo-serialization-jdk</title>
<ellipse fill="none" stroke="#000000" cx="1362.6756" cy="-162" rx="101.2834" ry="18"/>
<text text-anchor="middle" x="1362.6756" y="-157.8" font-family="Times,serif" font-size="14.00" fill="#000000">dubbo-serialization-jdk</text>
</g>
<!-- dubbo&#45;serialization&#45;jdk&#45;&gt;dubbo&#45;serialization&#45;api -->
<g id="edge58" class="edge">
<title>dubbo-serialization-jdk-&gt;dubbo-serialization-api</title>
<path fill="none" stroke="#000000" d="M1310.6789,-146.4657C1273.3029,-135.2994 1222.76,-120.1995 1183.3453,-108.4241"/>
<polygon fill="#000000" stroke="#000000" points="1184.1626,-105.0155 1173.5791,-105.5064 1182.1588,-111.7226 1184.1626,-105.0155"/>
</g>
<!-- dubbo&#45;xds -->
<g id="node44" class="node">
<title>dubbo-xds</title>
<ellipse fill="none" stroke="#000000" cx="551.6756" cy="-666" rx="51.6131" ry="18"/>
<text text-anchor="middle" x="551.6756" y="-661.8" font-family="Times,serif" font-size="14.00" fill="#000000">dubbo-xds</text>
</g>
<!-- dubbo&#45;xds&#45;&gt;dubbo&#45;registry&#45;api -->
<g id="edge59" class="edge">
<title>dubbo-xds-&gt;dubbo-registry-api</title>
<path fill="none" stroke="#000000" d="M531.0335,-649.3008C519.5759,-640.0317 505.1225,-628.339 492.4602,-618.0954"/>
<polygon fill="#000000" stroke="#000000" points="494.4233,-615.1816 484.4475,-611.6132 490.0207,-620.6238 494.4233,-615.1816"/>
</g>
</g>
</svg>